<svg width="30" height="25" viewBox="0 0 30 25" fill="none" xmlns="http://www.w3.org/2000/svg">
<path d="M0.785156 2.35032L5.92927 8.63212L6.65387 7.27838L2.10111 0.855591L2.31575 2.80437L0.785156 2.35032Z" fill="#E40318"/>
<path fill-rule="evenodd" clip-rule="evenodd" d="M1.77442 0L6.92174 7.26155L5.96793 9.04357L0.132812 1.91796L2.04824 2.48608L1.77442 0ZM2.42477 1.71135L2.58023 3.12274L1.43448 2.78294L5.88759 8.22084L6.38296 7.29538L2.42477 1.71135Z" fill="#32312F"/>
<path d="M0.78125 8.15059L6.20376 9.57271L6.05928 8.52237L0.90992 6.78162L1.82051 7.78315L0.78125 8.15059Z" fill="#E40318"/>
<path fill-rule="evenodd" clip-rule="evenodd" d="M0.143478 6.28052L6.26682 8.35054L6.4775 9.88202L0 8.18325L1.41772 7.68199L0.143478 6.28052ZM1.67535 7.28294L2.22228 7.88453L1.56149 8.11816L5.92902 9.26352L5.85073 8.69451L1.67535 7.28294Z" fill="#32312F"/>
<path d="M29.189 13.8681C29.189 21.0739 21.7799 24.0332 15.9621 24.0332C10.1444 24.0332 3.06241 22.4398 2.53125 14.6241C2.53125 8.80634 9.76491 2.55908 15.5827 2.55908C21.4005 2.55908 29.189 8.05039 29.189 13.8681Z" fill="#ECECEC"/>
<path fill-rule="evenodd" clip-rule="evenodd" d="M24.5108 21.2655C26.9851 19.6918 28.73 17.2842 28.73 13.8681C28.73 11.1608 26.9061 8.4521 24.2839 6.39297C21.6689 4.33951 18.3644 3.01818 15.5827 3.01818C12.8224 3.01818 9.66431 4.5107 7.18295 6.75067C4.70337 8.98914 2.99678 11.8845 2.99035 14.6086C3.24856 18.3402 5.05147 20.5517 7.4812 21.855C9.94673 23.1775 13.0819 23.5741 15.9621 23.5741C18.8044 23.5741 22.0207 22.8492 24.5108 21.2655ZM2.53125 14.6241C3.06241 22.4398 10.1444 24.0332 15.9621 24.0332C21.7799 24.0332 29.189 21.0739 29.189 13.8681C29.189 8.05039 21.4005 2.55908 15.5827 2.55908C9.76491 2.55908 2.53125 8.80634 2.53125 14.6241Z" fill="#32312F"/>
<path d="M27.0764 17.547C27.0764 18.8603 26.0117 19.9251 24.6983 19.9251C23.385 19.9251 22.3203 18.8603 22.3203 17.547C22.3203 16.2336 23.385 15.1689 24.6983 15.1689C26.0117 15.1689 27.0764 16.2336 27.0764 17.547Z" fill="#FFC3C3"/>
<path d="M18.4202 23.4086C8.82543 22.087 2.85448 20.3051 5.56547 8.4386C5.56547 8.4386 4.82158 9.28002 4.10675 10.5915C3.52935 11.6509 2.94718 12.9295 2.98624 14.6135C3.01658 15.9216 3.44214 17.5224 4.40559 19.1478C5.80195 21.5037 8.77806 22.7428 11.6368 23.2378C13.3917 23.5418 15.1156 23.5997 16.3795 23.5655C17.6227 23.5318 18.4202 23.4086 18.4202 23.4086Z" fill="#CBCFDE"/>
<path fill-rule="evenodd" clip-rule="evenodd" d="M25.0418 17.3213C25.0613 17.1961 25.1787 17.1104 25.304 17.1298C25.9451 17.2296 26.5046 17.3151 27.0395 17.3968C27.8578 17.5218 28.6188 17.6381 29.5281 17.7836C29.6534 17.8036 29.7386 17.9213 29.7185 18.0464C29.6985 18.1717 29.5808 18.2569 29.4557 18.2368C28.5473 18.0916 27.7893 17.9758 26.9727 17.851C26.4377 17.7692 25.8775 17.6837 25.2333 17.5834C25.1081 17.564 25.0223 17.4466 25.0418 17.3213Z" fill="#32312F"/>
<path fill-rule="evenodd" clip-rule="evenodd" d="M25.0617 18.094C25.1166 17.9797 25.2538 17.9315 25.368 17.9864C25.7424 18.1662 26.0695 18.3223 26.3825 18.4715C26.8615 18.7 27.3073 18.9125 27.8383 19.1703C27.9523 19.2257 27.9999 19.363 27.9445 19.477C27.8891 19.5911 27.7518 19.6386 27.6378 19.5833C27.1077 19.3259 26.6648 19.1147 26.1872 18.887C25.8742 18.7377 25.5463 18.5814 25.1693 18.4003C25.055 18.3454 25.0069 18.2083 25.0617 18.094Z" fill="#32312F"/>
<path d="M13.2305 15.8694C13.2305 16.8239 13.9892 17.6338 15.5314 17.6338C17.0736 17.6338 18.526 16.5361 18.526 15.5816C18.526 14.6271 17.4614 14.134 15.9192 14.134C14.377 14.134 13.2305 14.9149 13.2305 15.8694Z" fill="#989FB8"/>
<path d="M15.8399 16.3225C15.8399 16.3225 16.9532 15.8734 16.9532 15.2092C16.9532 14.5449 14.7266 14.4887 14.7266 15.2092C14.7266 15.824 15.8399 16.3225 15.8399 16.3225Z" fill="#32312F"/>
<path fill-rule="evenodd" clip-rule="evenodd" d="M8.53522 12.4016C8.65017 12.3481 8.78664 12.398 8.84013 12.513C9.00955 12.8775 9.36725 13.1432 9.84291 13.2805C10.3178 13.4176 10.8901 13.4195 11.4433 13.2713C11.5658 13.2385 11.6916 13.3112 11.7244 13.4336C11.7572 13.556 11.6845 13.682 11.5621 13.7147C10.9364 13.8823 10.2785 13.8842 9.71547 13.7216C9.15319 13.5591 8.66496 13.2253 8.42381 12.7065C8.37032 12.5915 8.42026 12.455 8.53522 12.4016Z" fill="#32312F"/>
<path fill-rule="evenodd" clip-rule="evenodd" d="M22.4705 12.4016C22.3555 12.3481 22.2191 12.398 22.1656 12.513C21.9962 12.8775 21.6385 13.1432 21.1628 13.2805C20.6879 13.4176 20.1157 13.4195 19.5624 13.2713C19.4399 13.2385 19.3141 13.3112 19.2813 13.4336C19.2485 13.556 19.3212 13.682 19.4437 13.7147C20.0693 13.8823 20.7272 13.8842 21.2902 13.7216C21.8525 13.5591 22.3408 13.2253 22.5819 12.7065C22.6353 12.5915 22.5855 12.455 22.4705 12.4016Z" fill="#32312F"/>
<path fill-rule="evenodd" clip-rule="evenodd" d="M23.0712 10.7868C23.0673 10.6975 23.0287 10.5838 22.9437 10.477C22.8587 10.3702 22.7567 10.3071 22.6705 10.2832C22.5841 10.2592 22.5345 10.2778 22.5108 10.2966C22.4873 10.3154 22.4579 10.3595 22.4619 10.4492C22.4658 10.5385 22.5044 10.6521 22.5894 10.7589C22.6744 10.8658 22.7765 10.9289 22.8626 10.9528C22.9491 10.9768 22.9987 10.9582 23.0223 10.9394C23.0459 10.9206 23.0752 10.8765 23.0712 10.7868ZM23.1857 11.1447C23.3969 10.9766 23.3805 10.6046 23.149 10.3137C22.9176 10.0228 22.5587 9.92327 22.3475 10.0914C22.1363 10.2594 22.1527 10.6314 22.3841 10.9223C22.6156 11.2132 22.9744 11.3128 23.1857 11.1447Z" fill="#32312F"/>
<path fill-rule="evenodd" clip-rule="evenodd" d="M8.34858 10.7868C8.35256 10.6975 8.39109 10.5838 8.47611 10.477C8.56113 10.3702 8.66315 10.3071 8.74932 10.2832C8.83575 10.2592 8.88544 10.2778 8.90899 10.2966C8.93264 10.3154 8.96195 10.3595 8.95797 10.4492C8.95407 10.5385 8.91546 10.6521 8.83044 10.7589C8.74542 10.8658 8.6434 10.9289 8.55723 10.9528C8.47079 10.9768 8.4212 10.9582 8.39755 10.9394C8.37391 10.9206 8.34468 10.8765 8.34858 10.7868ZM8.23421 11.1447C8.023 10.9766 8.0394 10.6046 8.27082 10.3137C8.50232 10.0228 8.86117 9.92327 9.07239 10.0914C9.28361 10.2594 9.26713 10.6314 9.03572 10.9223C8.80431 11.2132 8.44547 11.3128 8.23421 11.1447Z" fill="#32312F"/>
<path d="M9.30301 17.547C9.30301 18.8603 8.23829 19.9251 6.92493 19.9251C5.61156 19.9251 4.54688 18.8603 4.54688 17.547C4.54688 16.2336 5.61156 15.1689 6.92493 15.1689C8.23829 15.1689 9.30301 16.2336 9.30301 17.547Z" fill="#FFC3C3"/>
<path fill-rule="evenodd" clip-rule="evenodd" d="M15.5364 16.3054C15.6141 16.2053 15.7583 16.187 15.8585 16.2647C16.7655 16.9678 17.5525 17.5059 18.3193 17.6263C19.0487 17.741 19.8107 17.481 20.6866 16.4309C20.7677 16.3336 20.9125 16.3205 21.0098 16.4017C21.1072 16.4829 21.1203 16.6276 21.0391 16.725C20.0964 17.8553 19.1862 18.2273 18.248 18.0798C17.347 17.9383 16.4708 17.3203 15.5772 16.6275C15.477 16.5499 15.4588 16.4057 15.5364 16.3054Z" fill="#32312F"/>
<path fill-rule="evenodd" clip-rule="evenodd" d="M15.8685 16.3163C15.7908 16.2161 15.6466 16.1979 15.5464 16.2756C14.6395 16.9786 13.8524 17.5167 13.0857 17.6372C12.3562 17.7519 11.5942 17.4919 10.7183 16.4418C10.6371 16.3445 10.4924 16.3314 10.3951 16.4126C10.2977 16.4938 10.2846 16.6386 10.3658 16.7359C11.3085 17.8661 12.2186 18.2382 13.1569 18.0907C14.0579 17.9492 14.934 17.3311 15.8277 16.6384C15.9278 16.5607 15.9462 16.4166 15.8685 16.3163Z" fill="#32312F"/>
<path fill-rule="evenodd" clip-rule="evenodd" d="M19.0636 4.88337C19.111 4.72742 19.2759 4.63939 19.4318 4.68677C20.4367 4.99213 22.5276 5.81548 23.7671 6.99821C23.885 7.11068 23.8894 7.29754 23.7769 7.41542C23.6643 7.53338 23.4776 7.53772 23.3596 7.42525C22.2237 6.34135 20.2435 5.55033 19.2602 5.25153C19.1043 5.20415 19.0162 5.03933 19.0636 4.88337Z" fill="white"/>
<path fill-rule="evenodd" clip-rule="evenodd" d="M6.32029 17.3213C6.3008 17.1961 6.18345 17.1104 6.05818 17.1298C5.41692 17.2296 4.85753 17.3151 4.3226 17.3968C3.50432 17.5218 2.74327 17.6381 1.83395 17.7836C1.70877 17.8036 1.62352 17.9213 1.64354 18.0464C1.66356 18.1717 1.78127 18.2569 1.90645 18.2368C2.81478 18.0916 3.57273 17.9758 4.38936 17.851C4.92438 17.7692 5.48459 17.6837 6.12879 17.5834C6.25405 17.564 6.33979 17.4466 6.32029 17.3213Z" fill="#32312F"/>
<path fill-rule="evenodd" clip-rule="evenodd" d="M6.30038 18.094C6.2455 17.9797 6.10837 17.9315 5.99409 17.9864C5.61973 18.1662 5.29259 18.3223 4.97963 18.4715C4.50061 18.7 4.05484 18.9125 3.52387 19.1703C3.40983 19.2257 3.36227 19.363 3.41763 19.477C3.473 19.5911 3.61033 19.6386 3.72438 19.5833C4.25444 19.3259 4.69738 19.1147 5.17489 18.887C5.48792 18.7377 5.81581 18.5814 6.19285 18.4003C6.30712 18.3454 6.35526 18.2083 6.30038 18.094Z" fill="#32312F"/>
<path d="M24.4967 7.90256C24.4967 8.06772 24.3628 8.20162 24.1976 8.20162C24.0324 8.20162 23.8984 8.06772 23.8984 7.90256C23.8984 7.7373 24.0324 7.60339 24.1976 7.60339C24.3628 7.60339 24.4967 7.7373 24.4967 7.90256Z" fill="white"/>
<path d="M24.5358 6.03379C25.3514 6.57897 25.8746 6.88672 26.4188 7.67465C26.4188 7.67465 19.7874 8.8619 15.6717 8.8619C11.5559 8.8619 5.43359 7.67465 5.43359 7.67465C6.01837 6.86919 6.36223 6.4758 7.21847 5.98987C7.21847 5.98987 11.5615 6.93685 15.6717 6.93685C19.7818 6.93685 24.5358 6.03379 24.5358 6.03379Z" fill="#E40318"/>
<path fill-rule="evenodd" clip-rule="evenodd" d="M7.18065 5.74695L7.26646 5.76563L7.26512 5.77183C7.26647 5.76564 7.26646 5.76563 7.26646 5.76563L7.26928 5.76625L7.27835 5.7682C7.28645 5.76997 7.29865 5.77254 7.31482 5.776C7.34713 5.78282 7.39528 5.79291 7.45814 5.80575C7.58386 5.83144 7.76842 5.86819 8.00286 5.91229C8.47182 6.00068 9.1401 6.11846 9.93644 6.23634C11.5304 6.47226 13.6314 6.70739 15.6708 6.70739C17.7113 6.70739 19.916 6.48306 21.614 6.25785C22.4621 6.14529 23.1823 6.03282 23.6902 5.94851C23.9442 5.90636 24.145 5.8712 24.2822 5.84667C24.3507 5.83444 24.4034 5.82479 24.4388 5.81824C24.4565 5.81496 24.4699 5.81248 24.4788 5.8108L24.492 5.80832C24.492 5.80832 24.492 5.80832 24.5349 6.03379L24.492 5.80832L24.5843 5.79079L24.6624 5.84303C24.7322 5.88962 24.8001 5.9347 24.8665 5.97871C25.5679 6.44401 26.0829 6.78568 26.6068 7.5442V8.00667L26.4584 7.90066L26.418 7.67465C26.4584 7.90066 26.4584 7.90066 26.4584 7.90066L26.4389 7.90411C26.426 7.90641 26.4071 7.90969 26.3821 7.91412C26.3323 7.92289 26.2587 7.93564 26.1637 7.95194C25.9738 7.98453 25.698 8.03102 25.3543 8.08681C24.6668 8.19831 23.7073 8.347 22.6188 8.4957C20.445 8.79273 17.7452 9.09145 15.6708 9.09145C13.5957 9.09145 11.0227 8.79265 8.97538 8.49552C7.9502 8.34674 7.05408 8.19796 6.41418 8.08637C6.09419 8.03058 5.83818 7.98399 5.66203 7.9514C5.57396 7.93511 5.50584 7.92235 5.45968 7.91359C5.43659 7.90916 5.41899 7.9058 5.40713 7.90358L5.38908 7.90004C5.38908 7.90004 5.38899 7.90004 5.43269 7.67474L5.38908 7.90004L5.10547 8.17848L5.24694 7.53986C5.5402 7.13594 5.78196 6.82261 6.06299 6.54824C6.34638 6.27158 6.66341 6.04052 7.10427 5.79025L7.18065 5.74695ZM5.83504 7.51648C6.00296 7.5473 6.22544 7.58742 6.49304 7.63409C7.12968 7.74514 8.02137 7.89313 9.04127 8.04121C11.084 8.33762 13.63 8.63244 15.6708 8.63244C17.7121 8.63244 20.3858 8.33753 22.5567 8.04085C23.6405 7.89278 24.5961 7.7447 25.2807 7.63365C25.5794 7.5852 25.8264 7.54376 26.0099 7.5125C25.6121 7.02541 25.2015 6.75256 24.6058 6.35678C24.5663 6.33065 24.5261 6.30391 24.485 6.27654C24.4525 6.28247 24.4116 6.28992 24.363 6.29859C24.2241 6.32339 24.0214 6.3589 23.7654 6.40141C23.2535 6.48634 22.5284 6.59961 21.6743 6.71288C19.9677 6.93924 17.7404 7.16649 15.6708 7.16649C13.5999 7.16649 11.4743 6.92808 9.86922 6.69048C9.06597 6.57163 8.39167 6.45269 7.91789 6.36351C7.68097 6.31887 7.49411 6.28159 7.36627 6.25555C7.32237 6.24652 7.28543 6.2389 7.25581 6.2327C6.88086 6.45101 6.61719 6.64876 6.38368 6.87672C6.19829 7.05773 6.02849 7.26098 5.83504 7.51648Z" fill="#32312F"/>
</svg>
